<?xml version="1.0" standalone="no"?>
<!DOCTYPE svg PUBLIC "-//W3C//DTD SVG 20010904//EN"
 "http://www.w3.org/TR/2001/REC-SVG-20010904/DTD/svg10.dtd">
<svg version="1.0" xmlns="http://www.w3.org/2000/svg"
 width="540.000000pt" height="405.000000pt" viewBox="0 0 540.000000 405.000000"
 preserveAspectRatio="xMidYMid meet">

<g transform="translate(0.000000,405.000000) scale(0.100000,-0.100000)"
fill="#000000" stroke="none">
<path d="M0 2025 l0 -2025 2700 0 2700 0 0 2025 0 2025 -2700 0 -2700 0 0
-2025z m2971 864 c94 -24 223 -80 296 -130 114 -78 263 -249 263 -302 0 -20
-29 -53 -137 -151 -136 -125 -167 -144 -193 -113 -6 6 -34 47 -61 90 -78 120
-182 184 -315 194 -190 15 -368 -113 -419 -301 -57 -212 71 -436 285 -497 59
-16 70 -26 70 -60 0 -70 -62 -74 -190 -12 -176 86 -290 270 -290 469 0 140 50
255 154 360 87 87 170 130 282 148 l79 12 -65 27 c-124 51 -212 63 -307 43
-128 -26 -227 -94 -305 -208 -92 -137 -132 -268 -132 -438 0 -142 19 -222 81
-350 94 -195 238 -289 442 -290 146 0 309 62 443 168 83 66 135 125 201 228
42 65 62 84 88 84 5 0 72 -57 149 -126 166 -150 166 -149 89 -251 -65 -85 -97
-117 -183 -182 -214 -162 -489 -217 -751 -151 -101 25 -261 105 -342 170 -231
186 -359 499 -324 794 45 394 317 697 701 782 94 21 293 17 391 -7z"/>
<path d="M2620 2791 c-23 -7 -21 -9 20 -20 85 -23 115 -34 175 -64 144 -71
285 -185 373 -302 25 -33 49 -64 53 -69 9 -10 159 119 159 137 0 6 -42 51 -92
101 -120 119 -238 183 -396 215 -59 12 -253 13 -292 2z"/>
<path d="M3211 1659 c-86 -127 -271 -274 -417 -334 -38 -15 -107 -35 -153 -45
-94 -19 -90 -24 35 -41 154 -22 328 15 478 101 84 48 179 130 220 189 l29 41
-74 70 c-41 38 -76 69 -79 69 -3 0 -20 -22 -39 -50z"/>
</g>
</svg>
