<?xml version="1.0" standalone="no"?>
<!DOCTYPE svg PUBLIC "-//W3C//DTD SVG 20010904//EN"
 "http://www.w3.org/TR/2001/REC-SVG-20010904/DTD/svg10.dtd">
<svg version="1.0" xmlns="http://www.w3.org/2000/svg"
 width="252.000000pt" height="273.000000pt" viewBox="0 0 252.000000 273.000000"
 preserveAspectRatio="xMidYMid meet">

<g transform="translate(0.000000,273.000000) scale(0.100000,-0.100000)"
fill="#000000" stroke="none">
<path d="M1115 2261 c-93 -55 -298 -174 -455 -264 l-285 -165 -3 -530 -2 -530
207 -120 c115 -66 235 -135 268 -152 33 -18 144 -81 248 -141 l187 -109 213
123 c116 68 324 188 460 266 136 79 246 145 245 146 -20 15 -434 249 -439 248
-4 -1 -110 -66 -235 -143 -125 -77 -233 -139 -240 -138 -7 2 -114 66 -238 143
l-226 140 0 271 0 271 229 141 c125 78 235 142 243 142 12 0 115 -62 414 -250
l62 -39 221 128 c160 93 218 131 209 138 -7 6 -121 72 -253 148 -132 76 -332
192 -444 257 -112 65 -206 118 -210 118 -3 0 -82 -45 -176 -99z"/>
</g>
</svg>
